<svg xmlns="http://www.w3.org/2000/svg" width="199" height="69" viewBox="0 0 199 69">
  <g fill="none" transform="matrix(1 0 0 -1 0 69.57)">
    <path fill="#231F20" d="M9.43384554,20.1049167 L5.4756514,7.83442209 L13.3898745,7.83442209 L9.43384554,20.1049167 Z M18.8440291,0.0201049167 L15.9501584,0.0201049167 L14.1210749,5.34063915 L4.71104595,5.34063915 L2.91521293,0.0201049167 L0.0239712469,0.0201049167 L7.50470146,22.1650521 L11.3619071,22.1650521 L18.8440291,0.0201049167 Z" transform="translate(21.507 36.218)"/>
    <path fill="#231F20" d="M43.9411514,52.4306844 L46.7337243,52.4306844 L46.7337243,36.2375659 L43.9411514,36.2375659 L43.9411514,52.4306844 Z M43.9411514,59.0482951 L46.7337243,59.0482951 L46.7337243,55.0256106 L43.9411514,55.0256106 L43.9411514,59.0482951 Z"/>
    <polygon fill="#231F20" points="0 0 5.319 8.148 .099 16.193 2.993 16.193 6.849 10.241 10.707 16.193 13.599 16.193 8.346 8.148 13.698 0 10.774 0 6.849 6.019 2.959 0" transform="translate(49.993 36.238)"/>
    <polygon fill="#231F20" points="3.248 18.094 2.815 .139 .056 .139 .821 22.284 4.446 22.284 10.829 5.159 17.214 22.284 20.836 22.284 21.602 .139 18.843 .139 18.409 18.094 12.758 2.999 8.901 2.999" transform="translate(83.103 36.099)"/>
    <g transform="translate(.049 .837)">
      <path fill="#231F20" d="M9.27919234,6.95939425 L5.15412738,6.95939425 C3.42634177,6.95939425 2.79381016,6.42723257 2.79381016,4.7978064 C2.79381016,3.13559374 3.09383738,2.47120357 5.08870908,2.47120357 C6.48569149,2.47120357 8.04768886,3.00212803 9.27919234,3.79998392 L9.27919234,6.95939425 Z M12.070528,0.408593769 L9.71036548,0.408593769 L9.54364932,1.60669215 C8.11449905,0.608715017 6.25216514,0.0762440304 4.29069854,0.0762440304 C1.26475392,0.0762440304 0.00123722565,1.87207705 0.00123722565,4.73146017 C0.00123722565,8.08959988 1.69716428,9.28738896 4.95648059,9.28738896 L9.27919234,9.28738896 L9.27919234,11.814577 C9.27919234,13.8425445 8.38127583,14.541577 5.75449113,14.541577 C4.19202979,14.541577 2.6773563,14.3842947 1.41476753,14.1189098 L1.11489496,16.3468438 C2.64379655,16.7456945 4.19202979,16.9351446 5.91981541,16.9351446 C10.5416265,16.9351446 12.070528,15.1394663 12.070528,11.6809566 L12.070528,0.408593769 Z" transform="translate(107.792 34.992)"/>
      <path fill="#231F20" d="M7.42335387,14.0734417 C5.89352436,13.3420867 4.13094178,12.2109532 2.80185213,11.2796316 L2.80185213,0.107020018 L0.00835127311,0.107020018 L0.00835127311,16.3001386 L2.4364066,16.3001386 L2.60188553,14.0400366 C3.79967461,14.9712036 5.46219657,15.9679435 7.05821765,16.6337255 L7.42335387,14.0734417 Z" transform="translate(124.204 35.294)"/>
      <path fill="#231F20" d="M5.25820899,0 C3.59584168,0 1.40100339,0.365600178 0.104236261,0.864666073 L0.470919011,3.05934971 C1.86635489,2.66034444 3.695593,2.39480489 5.09242076,2.39480489 C7.65301388,2.39480489 8.08418702,2.85922847 8.08418702,4.58840596 C8.08418702,6.3174288 7.95180387,6.5177047 4.69248757,7.31540593 C0.669957687,8.31338307 0.304202856,9.14464405 0.304202856,12.5027838 C0.304202856,15.4953233 1.63452973,16.8589006 5.8904313,16.8589006 C7.45289263,16.8589006 9.14866503,16.658934 10.4791466,16.2933338 L10.2785614,13.9984349 C8.91637592,14.2652117 7.12054289,14.4653329 5.79052533,14.4653329 C3.39680301,14.4653329 3.0633707,13.8996115 3.0633707,12.4361282 C3.0633707,10.6404499 3.09646648,10.3081001 5.82377577,9.64355529 C10.4791466,8.47994457 10.8442828,7.91314057 10.8442828,4.68831193 C10.8442828,1.53044812 9.88125727,0 5.25820899,0" transform="translate(133.685 35.068)"/>
      <path fill="#231F20" d="M2.93841091,9.74315196 L9.88821666,9.74315196 L9.88821666,11.0745614 C9.88821666,13.334818 9.12361121,14.5994173 6.49651721,14.5994173 C3.86942321,14.5994173 2.93841091,13.334818 2.93841091,11.0745614 L2.93841091,9.74315196 Z M6.79561651,2.46238834 C8.39117363,2.46238834 10.1537562,2.76009576 11.9164935,3.22683914 L12.2816297,0.998595749 C10.7527281,0.433183629 8.59160419,0.0675834509 6.56348205,0.0675834509 C1.77480019,0.0675834509 0.145528667,2.36232772 0.145528667,6.01941207 L0.145528667,10.8745948 C0.145528667,14.2325799 1.67504887,16.9263294 6.49651721,16.9263294 C11.2836525,16.9263294 12.5818115,14.166079 12.5818115,10.8079393 L12.5818115,7.41639448 L2.93841091,7.41639448 L2.93841091,6.05281716 C2.93841091,3.49237869 3.63620617,2.46238834 6.79561651,2.46238834 Z" transform="translate(147.694 35)"/>
      <path fill="#231F20" d="M163.935491,51.5937013 L166.729301,51.5937013 L166.729301,35.4005827 L163.935491,35.4005827 L163.935491,51.5937013 Z M163.935491,58.211312 L166.729301,58.211312 L166.729301,54.1886274 L163.935491,54.1886274 L163.935491,58.211312 Z"/>
      <polygon fill="#231F20" points="0 0 0 22.811 2.792 23.21 2.792 0" transform="translate(172.049 35.4)"/>
      <polygon fill="#231F20" points="0 0 0 22.811 2.794 23.21 2.794 0" transform="translate(180.162 35.4)"/>
      <path fill="#231F20" d="M2.93841091,9.74315196 L9.88821666,9.74315196 L9.88821666,11.0745614 C9.88821666,13.334818 9.12361121,14.5994173 6.49682652,14.5994173 C3.86957786,14.5994173 2.93841091,13.334818 2.93841091,11.0745614 L2.93841091,9.74315196 Z M6.79669908,2.46238834 C8.39241086,2.46238834 10.1537562,2.76009576 11.9161841,3.22683914 L12.281939,0.998595749 C10.7527281,0.433183629 8.59144953,0.0675834509 6.56317274,0.0675834509 C1.77495484,0.0675834509 0.145837973,2.36232772 0.145837973,6.01941207 L0.145837973,10.8745948 C0.145837973,14.2325799 1.67473956,16.9263294 6.49682652,16.9263294 C11.2850444,16.9263294 12.5818115,14.166079 12.5818115,10.8079393 L12.5818115,7.41639448 L2.93841091,7.41639448 L2.93841091,6.05281716 C2.93841091,3.49237869 3.63759805,2.46238834 6.79669908,2.46238834 Z" transform="translate(186.189 35)"/>
      <path fill="#4DC6F4" d="M2.01049167,16.3932398 L2.01049167,3.43438374 C2.01049167,2.24943088 2.63559993,1.82196942 3.75389726,1.82196942 C5.06844951,1.82196942 7.89798456,2.61162868 9.90445525,3.6641984 L9.90445525,16.3932398 L11.8122572,16.3932398 L11.8122572,0.375034024 L10.1355071,0.375034024 L10.003588,1.82196942 C8.29235023,1.00153416 5.43064732,0.0463959617 3.49191473,0.0463959617 C0.991017742,0.0463959617 0.102689729,1.46116349 0.102689729,3.6641984 L0.102689729,16.3932398 L2.01049167,16.3932398 Z" transform="translate(57.793 12.711)"/>
      <path fill="#4DC6F4" d="M9.89780516,0 L9.89780516,12.9590107 C9.89780516,14.1425717 9.27254225,14.5712704 8.15439957,14.5712704 C6.83953802,14.5712704 4.01015762,13.7805285 2.0047695,12.7279588 L2.0047695,0 L0.0944931087,0 L0.0944931087,16.0182058 L1.77387227,16.0182058 L1.90470888,14.5712704 C3.61470938,15.3929429 6.47764952,16.3468438 8.41622745,16.3468438 C10.9169698,16.3468438 11.8054525,14.9320763 11.8054525,12.7279588 L11.8054525,0 L9.89780516,0 Z" transform="translate(75.518 13.086)"/>
      <path fill="#4DC6F4" d="M92.3228602,23.7695791 L94.2305075,23.7695791 L94.2305075,13.086445 L92.3228602,13.086445 L92.3228602,23.7695791 Z M92.3228602,29.1773377 L94.2305075,29.1773377 L94.2305075,25.6594413 L92.3228602,25.6594413 L92.3228602,29.1773377 Z"/>
      <polygon fill="#4DC6F4" points="8.506 0 5.578 0 .151 16.018 2.092 16.018 7.026 1.35 11.993 16.018 13.931 16.018" transform="translate(97.921 13.086)"/>
      <path fill="#4DC6F4" d="M2.01049167,9.58849875 L10.0345186,9.58849875 L10.0345186,11.0365167 C10.0345186,13.7327407 9.08185485,15.1473536 6.08792344,15.1473536 C3.09538391,15.1473536 2.01049167,13.7327407 2.01049167,11.0365167 L2.01049167,9.58849875 Z M6.18798406,1.7945958 C7.83148368,1.7945958 9.67494989,2.12184198 11.2516393,2.55054067 L11.5825972,1.00493653 C10.1011741,0.478497018 7.99588004,0.116453864 6.054673,0.116453864 C1.54854255,0.116453864 0.102844382,2.45187192 0.102844382,5.93744587 L0.102844382,10.9698612 C0.102844382,14.2590256 1.58194764,16.7919358 6.08792344,16.7919358 C10.5943632,16.7919358 11.9112352,14.2590256 11.9112352,10.9698612 L11.9112352,7.87849826 L2.01049167,7.87849826 L2.01049167,5.87311014 C2.01049167,3.01156187 2.99671517,1.7945958 6.18798406,1.7945958 Z" transform="translate(114.232 12.641)"/>
      <path fill="#4DC6F4" d="M7.11404746,14.5374013 C5.4372974,13.813315 3.59584168,12.5961943 2.0480724,11.5779576 L2.0480724,0.066191572 L0.142744909,0.066191572 L0.142744909,16.0843973 L1.85259075,16.0843973 L1.95033158,13.6490733 C3.66033207,14.7684532 5.37033257,15.8545827 6.88531537,16.4130354 L7.11404746,14.5374013 Z" transform="translate(130.74 13.02)"/>
      <path fill="#4DC6F4" d="M4.79424938,0 C3.18183505,0 1.27666221,0.328638062 0.0904721253,0.821672482 L0.419264841,2.36743127 C1.80047262,1.94120704 3.47706802,1.71015515 4.66124762,1.71015515 C7.62130997,1.71015515 8.21455967,2.2698451 8.21455967,4.30848366 C8.21455967,6.61173385 8.15022394,6.84139386 4.49917106,7.69662609 C0.485920372,8.6503724 0.157436963,9.63644124 0.157436963,12.5635625 C0.157436963,15.2262267 1.43873877,16.6754819 5.38486997,16.6754819 C6.86629302,16.6754819 8.67403435,16.4790723 9.92456017,16.1170292 L9.72706802,14.5046149 C8.44530225,14.7664427 6.57106005,14.9653268 5.25403336,14.9653268 C2.4582127,14.9653268 2.0649296,14.2403125 2.0649296,12.4979895 C2.0649296,10.2947999 2.19576621,10.0651399 5.15381808,9.30780318 C9.85805929,8.12393289 10.1220523,7.36798802 10.1220523,4.37405662 C10.1220523,1.48018583 9.06948259,0 4.79424938,0" transform="translate(140.995 12.758)"/>
      <path fill="#4DC6F4" d="M155.747222,23.7695791 L157.655179,23.7695791 L157.655179,13.086445 L155.747222,13.086445 L155.747222,23.7695791 Z M155.747222,29.1773377 L157.655179,29.1773377 L157.655179,25.6594413 L155.747222,25.6594413 L155.747222,29.1773377 Z"/>
      <path fill="#4DC6F4" d="M9.74315196,0.618612823 C8.82342934,0.255487096 7.91855344,0.119701581 6.76561379,0.119701581 C4.23425012,0.119701581 3.14781135,1.04143469 3.14781135,3.57310766 L3.14781135,14.8219632 L0.0567577265,14.8219632 L0.0567577265,16.4667001 L3.14781135,16.4667001 L3.14781135,19.6995707 L5.0582424,19.9617079 L5.0582424,16.4667001 L9.42147329,16.4667001 L9.22398114,14.8219632 L5.0582424,14.8219632 L5.0582424,3.77090911 C5.0582424,2.35629624 5.25372405,1.76304654 6.8990795,1.76304654 C7.78508772,1.76304654 8.4279811,1.80356568 9.38095415,2.09895331 L9.74315196,0.618612823 Z" transform="translate(161.695 12.638)"/>
      <path fill="#4DC6F4" d="M2.01049167,9.58849875 L10.0371477,9.58849875 L10.0371477,11.0365167 C10.0371477,13.7327407 9.0820095,15.1473536 6.08807809,15.1473536 C3.09677579,15.1473536 2.01049167,13.7327407 2.01049167,11.0365167 L2.01049167,9.58849875 Z M6.18813872,1.7945958 C7.83163833,1.7945958 9.67510455,2.12184198 11.251794,2.55054067 L11.5827518,1.00493653 C10.1013288,0.478497018 7.99603469,0.116453864 6.0569928,0.116453864 C1.54854255,0.116453864 0.102999035,2.45187192 0.102999035,5.93744587 L0.102999035,10.9698612 C0.102999035,14.2590256 1.58426744,16.7919358 6.08807809,16.7919358 C10.5945179,16.7919358 11.9113899,14.2590256 11.9113899,10.9698612 L11.9113899,7.87849826 L2.01049167,7.87849826 L2.01049167,5.87311014 C2.01049167,3.01156187 2.99656051,1.7945958 6.18813872,1.7945958 Z" transform="translate(174.036 12.641)"/>
      <path fill="#4DC6F4" d="M0,1.54653206 C1.47678346,2.02270928 3.21786925,2.59925643 4.87080271,3.23395318 L5.43992651,1.59648504 C3.82039814,0.953437013 2.02193601,0.425760275 0.528913963,0.0222700616 L0,1.54653206 Z" transform="translate(178.045 30.505)"/>
      <path fill="#FAB20B" d="M0.773266028,19.4863039 C0.773266028,19.4863039 0.0408284463,19.1765335 0.0408284463,18.845421 L0.0408284463,9.64912281 L0.0408284463,5.72216861 L0.0408284463,0.658668003 C0.0408284463,0.329565981 0.781926608,0.0180944251 0.781926608,0.0180944251 C0.781926608,0.0180944251 1.51436419,0.328019449 1.51436419,0.658668003 L1.51436419,5.72216861 L1.51436419,9.64912281 L1.51436419,18.845421 C1.51436419,19.1748324 0.773266028,19.4863039 0.773266028,19.4863039" transform="translate(71.84 35.5)"/>
      <path fill="#FAB20B" d="M0.927919234,19.6409571 L1.02952639,19.8822161 L0.927919234,19.6409571 Z M0.562937669,1.05102319 C0.568659837,1.0394242 0.582887932,1.0179274 0.6054673,0.99333754 C0.650935343,0.943539208 0.728107292,0.883069804 0.809300225,0.83126098 C0.891575731,0.778369584 0.974779155,0.734138767 1.0371044,0.703208126 C1.08334571,0.726096801 1.14103135,0.756563482 1.20181006,0.792906985 C1.34331774,0.872089427 1.4885371,1.0010702 1.50477569,1.049322 C1.51049786,1.0539616 1.50895133,1.05458021 1.50895133,1.05458021 L1.50895133,6.11854478 L1.50895133,10.045499 L1.50895133,19.2374669 C1.50833271,19.2393227 1.50725014,19.2419518 1.50523965,19.2455089 C1.49951748,19.2575718 1.48482543,19.27845 1.46240071,19.3031945 C1.41662336,19.3531475 1.33960607,19.4133076 1.25887709,19.4652711 C1.17629228,19.5183171 1.09277955,19.5627026 1.03029966,19.5934786 C0.984367654,19.5707446 0.926682008,19.5404325 0.866057952,19.504089 C0.724550268,19.4244426 0.579176255,19.2959258 0.562937669,19.247674 C0.557060847,19.2424158 0.558762032,19.2417972 0.559225992,19.2417972 L0.559225992,10.045499 C0.558762032,8.00175686 0.558762032,6.11854478 0.559225992,6.11854478 L0.558762032,1.05999307 C0.559380645,1.05860119 0.56061787,1.05566278 0.562937669,1.05102319 Z M0.93688912,0.173056937 C0.929001806,0.176613961 0.733829461,0.257497587 0.526130206,0.390653997 C0.330184594,0.53262564 0.0635624675,0.68604162 0.0354155841,1.05458021 L0.0354155841,6.11854478 L0.0354155841,10.045499 L0.0354155841,19.2417972 C0.0626345483,19.6084799 0.326936877,19.7646797 0.520871997,19.9057234 C0.72656076,20.0390345 0.919413308,20.1197634 0.927455274,20.1239391 L1.02906243,20.1669327 L1.13097889,20.1239391 C1.13933017,20.1203821 1.3338839,20.0390345 1.5414285,19.9057234 C1.73768342,19.7642157 2.0044602,19.6104904 2.03291639,19.2417972 L2.03291639,10.045499 C2.03245243,8.00175686 2.03245243,6.11854478 2.03291639,6.11854478 L2.03245243,1.05458021 C2.00569742,0.687897459 1.74077648,0.532161681 1.54715067,0.390653997 C1.3411526,0.257497587 1.1481454,0.176613961 1.14041274,0.173056937 L1.03849628,0.130063346 L0.93688912,0.173056937 Z" transform="translate(71.584 35.104)"/>
      <path fill="#FAB20B" d="M0.154653206,8.04196669 C0.154653206,8.04196669 0.0567577265,7.25261673 0.343175463,7.08698315 L4.72821246,4.55561948 C6.49775444,3.53382575 8.1288818,2.59214238 8.1288818,2.59214238 L12.5139188,0.0606240566 C12.7989446,-0.104236261 13.4392089,0.381993418 13.4392089,0.381993418 C13.4392089,0.381993418 13.5372591,1.17118873 13.2506867,1.33682231 L8.86549501,3.86864994 C8.86549501,3.86864994 7.23467696,4.81033331 5.46482567,5.83181773 L1.08025264,8.36349071 C0.794762824,8.52819637 0.154653206,8.04196669 0.154653206,8.04196669" transform="translate(65.821 38.974)"/>
      <path fill="#FAB20B" d="M12.8362161,0.618612823 C12.8976134,0.613509267 13.0785576,0.680164798 13.2152711,0.762285651 C13.2741939,0.795690743 13.3266214,0.828477223 13.3677591,0.856005493 C13.3703882,0.898535125 13.372708,0.950498602 13.372708,1.00802959 C13.3815233,1.18881919 13.3273947,1.41708732 13.2990931,1.4402853 L13.2989385,1.4402853 L13.2953814,1.4422958 L8.91328285,3.97211293 C8.91018979,3.97396877 7.2824648,4.913487 5.51276817,5.93528073 L1.13252542,8.4643246 C1.13066959,8.46494321 1.12494742,8.46587113 1.11613219,8.46587113 C1.0539616,8.47112934 0.873171999,8.40447381 0.736458565,8.32235296 C0.677535694,8.28910252 0.625108257,8.25585208 0.584125158,8.22832381 C0.581496053,8.18594883 0.579176255,8.13352139 0.579176255,8.07629971 C0.570051716,7.8948915 0.624953604,7.66569544 0.653100487,7.64358004 L0.653255141,7.64388934 L5.03844679,5.11268033 C6.80767946,4.09073194 8.4352498,3.15105907 8.43896147,3.14889392 L12.8201321,0.619695395 C12.8230705,0.619231435 12.8281741,0.618612823 12.8362161,0.618612823 M12.5621706,0.163777745 L8.17697894,2.69560537 C8.17697894,2.69560537 6.54569693,3.63697944 4.77646426,4.65877317 L0.391427264,7.1906008 C0.204142231,7.30458021 0.141043724,7.47933833 0.101607156,7.63074382 C0.0637171207,7.78586099 0.0558298072,7.94252468 0.0553658476,8.07629971 C0.0553658476,8.25879049 0.0733056195,8.39751441 0.0737695791,8.40493777 L0.0873790612,8.51427758 L0.175222082,8.58046916 C0.201513127,8.58479945 0.63438745,8.96772078 1.11613219,8.98968154 C1.20242867,8.98968154 1.29908693,8.97297899 1.39017767,8.9203969 L5.77459605,6.38856927 C7.54491129,5.3672395 9.17572934,4.42524683 9.17526538,4.42524683 L13.560457,1.8934192 C13.7480514,1.77943978 13.8108406,1.60483632 13.8501225,1.45374013 C13.8880125,1.29862297 13.8958998,1.14195927 13.8963638,1.00802959 C13.8963638,0.825538812 13.8790426,0.68650558 13.8779601,0.679700839 L13.8648145,0.570206369 L13.7765076,0.503550838 C13.7502165,0.498911241 13.3168782,0.116917823 12.8362161,0.0948024151 C12.7503835,0.0948024151 12.6537253,0.111195655 12.5621706,0.163777745" transform="translate(65.642 38.644)"/>
      <path fill="#FAB20B" d="M13.4548289,8.04196669 C13.4548289,8.04196669 13.552879,7.25261673 13.2663066,7.08698315 L8.88142429,4.55561948 C7.11172766,3.53382575 5.48075496,2.59214238 5.48075496,2.59214238 L1.09587262,0.0606240566 C0.810537451,-0.104236261 0.170273179,0.381993418 0.170273179,0.381993418 C0.170273179,0.381993418 0.0723777002,1.17118873 0.358795437,1.33682231 L4.74398708,3.86864994 C4.74398708,3.86864994 6.37480514,4.81033331 8.14465642,5.83181773 L12.5295388,8.36349071 C12.8147193,8.52819637 13.4548289,8.04196669 13.4548289,8.04196669" transform="translate(65.806 38.974)"/>
      <path fill="#FAB20B" d="M12.8362161,8.50592631 L12.8362161,8.50623562 C12.8362161,8.50623562 12.8360614,8.50623562 12.8362161,8.50592631 Z M0.752851805,0.803423403 C0.890029199,0.721457204 1.07035484,0.654492366 1.13237077,0.659750575 C1.14072204,0.659750575 1.14659887,0.660523841 1.14907332,0.660987801 L5.53008933,3.19065029 C5.53333705,3.19219682 7.16106203,4.1318697 8.93075867,5.15366343 L13.31162,7.68286195 L13.31162,7.6830166 C13.3131666,7.68456314 13.3173422,7.68982134 13.3227551,7.69925519 C13.3332715,7.71704031 13.3474996,7.75230124 13.3578613,7.79653206 C13.3801314,7.88545765 13.3894106,8.00964417 13.3889466,8.11743746 C13.3889466,8.17450449 13.3870908,8.22646797 13.3844617,8.26915225 C13.3433239,8.29652587 13.2907418,8.33008562 13.231819,8.36333606 C13.0951055,8.44545691 12.9140066,8.51288571 12.8524547,8.5076275 C12.8445673,8.5076275 12.8396184,8.50685423 12.8372986,8.50623562 L8.45581867,5.97641848 C6.68550343,4.95493406 5.05839705,4.01510653 5.05468537,4.01309603 L0.672741445,1.48343355 C0.671194913,1.48188702 0.667483236,1.47724742 0.662225027,1.46750427 C0.651244649,1.4498738 0.637635167,1.41492218 0.627118749,1.37084601 C0.604384728,1.28192042 0.595569495,1.1577339 0.596033455,1.04963131 C0.596033455,0.992254967 0.598043946,0.94029149 0.600673051,0.897761859 C0.64165615,0.870233588 0.693928934,0.836673843 0.752851805,0.803423403 Z M1.13237077,0.136558781 C0.651244649,0.158519536 0.218370326,0.540358301 0.192079281,0.544533937 L0.104236261,0.611344122 L0.0906267785,0.720683938 C0.0895442061,0.727643333 0.072223047,0.866676564 0.072223047,1.04963131 C0.072223047,1.18309702 0.0805743201,1.33991537 0.117845743,1.4954965 C0.157436963,1.64643803 0.220380818,1.8210415 0.407820503,1.93533022 L4.79332146,4.46684854 C4.79332146,4.46684854 6.42367555,5.40837725 8.19383614,6.43017098 L12.5779452,8.96138 C12.6694999,9.01396209 12.7663128,9.03128325 12.8524547,9.03128325 C13.3337354,9.00885854 13.7672284,8.62640116 13.7932101,8.62176156 L13.6349999,8.41344369 L13.7932101,8.62176156 L13.8812078,8.55541534 L13.8949719,8.44545691 C13.8954359,8.43849751 13.912757,8.29992824 13.912757,8.11743746 C13.912757,7.98366244 13.9042511,7.82761735 13.8669797,7.67188157 C13.8270792,7.52094004 13.7644446,7.34633657 13.5771596,7.23173855 L9.19258654,4.70037488 C7.42288991,3.6784265 5.79207186,2.73658847 5.79145325,2.73658847 L1.40641625,0.204915497 C1.31578947,0.153106674 1.22114171,0.136558781 1.13639176,0.136558781 L1.13237077,0.136558781 Z" transform="translate(65.626 38.602)"/>
      <path fill="#1476C6" d="M0,34.0237052 C0,37.5898535 0.30729592,40.9286616 0.922351719,44.0356445 C1.53694356,47.1429367 2.46841982,50.2027504 3.72219335,53.2149308 C4.9739564,56.226802 6.52249895,59.2448593 8.36534655,62.2706493 C9.47544726,64.1138062 10.4591963,65.3988197 11.1650335,66.2572996 C11.8942234,67.1445451 12.6664068,68.0822075 13.729493,68.0822075 C14.8883095,68.0822075 15.4662485,67.7637765 15.4662485,67.125832 C15.4662485,66.9124106 14.9223332,65.6315728 13.8357397,63.2797615 C12.7480637,60.929342 11.7264247,58.4663351 10.7700492,55.8912046 C9.81259125,53.3146822 8.92642838,50.1016072 8.11341647,46.2505877 C7.2966929,42.3997229 6.88995496,38.3229097 6.88995496,34.0237052 C6.88995496,29.7704328 7.29035211,25.7415621 8.09423948,21.9364746 C8.89735357,18.1333977 10.0354465,14.8365006 11.0638903,12.0490313 C12.0923341,9.26171653 12.8962215,6.7615928 13.9232735,4.55299037 C14.9518719,2.34438794 15.4662485,1.14505233 15.4662485,0.956375424 C15.4662485,0.31843095 14.8883095,0 13.729493,0 C12.6428996,0 11.8973165,1.0856655 11.1650335,1.91228689 C10.4322866,2.7404548 9.4994185,4.06196645 8.36534655,5.8831626 C6.4985277,9.00019796 4.95601663,12.0071202 3.73935986,14.9016096 C2.52208448,17.796563 1.59617574,20.8037946 0.958231262,23.9228404 C0.31889491,27.041113 0,30.4083773 0,34.0237052" transform="translate(.107 .014)"/>
    </g>
  </g>
</svg>
