<?xml version="1.0" encoding="UTF-8"?>
<svg width="380px" height="240px" viewBox="0 0 380 240" version="1.1" xmlns="http://www.w3.org/2000/svg" xmlns:xlink="http://www.w3.org/1999/xlink">
    <!-- Generator: Sketch 52.6 (67491) - http://www.bohemiancoding.com/sketch -->
    <title>error-404</title>
    <desc>Created with Sketch.</desc>
    <g id="Page-1" stroke="none" stroke-width="1" fill="none" fill-rule="evenodd">
        <g id="Desktop-HD---Error-404" transform="translate(-530.000000, -104.000000)">
            <g id="Group-2" transform="translate(410.000000, 32.000000)">
                <g id="Group" transform="translate(120.000000, 72.000000)">
                    <g id="error-404">
                        <path d="M250.269604,212.293333 C236.147441,206.742564 221.177045,204.084103 206.181583,204.084103 C186.553931,204.084103 166.883166,208.641026 149.031187,217.229744 C128.931293,226.470769 100.582691,234.870769 74.1591557,234.870769 C42.3694987,234.870769 13.3681794,222.705641 4.90591029,185.210256 C-0.886332454,159.729231 7.63108179,141.875897 30.505277,132.363077 C39.2613193,128.873846 48.3271768,123.615385 53.2731926,114.641026 C60.098153,102.657436 52.0168865,84.5271795 50.4958839,71.6912821 C46.3650132,35.0287179 66.4067546,25.3364103 93.8429551,25.3364103 C109.233456,25.3364103 126.952084,28.3876923 144.033034,31.4379487 C161.114987,34.4882051 177.557256,37.5394872 190.402058,37.5384615 C195.726069,37.5384615 200.433456,37.014359 204.309657,35.7487179 L202.245224,35.894359 C211.735198,33.0717949 216.635092,23.3805128 225.345013,19.1753846 C230.404327,16.945641 235.10971,15.9784615 239.54438,15.9784615 C265.727282,15.9784615 282.447282,49.7087179 306.526649,56.6307692 C319.18496,60.0584615 330.783483,57.8082051 343.580158,63.3825641 C359.219314,70.1969231 367.301583,88.3261538 367.083008,106.316923 C366.08438,122.927179 353.10723,133.670769 345.733826,147.849231 C336.984802,162.125128 340.152137,168.374359 344.562744,183.164103 C352.327177,207.069744 348.314617,232.749744 321.724644,238.208205 C318.001847,239.004103 314.499631,239.364103 311.165858,239.364103 C287.641953,239.364103 272.645488,221.433846 250.269604,212.293333 Z" id="Fill-4" fill="#0F81BA"></path>
                        <path d="M190.080211,29.5835897 C186.523852,29.5835897 186.523852,23.9425641 190.080211,23.9425641 C193.63657,23.9425641 193.63657,29.5835897 190.080211,29.5835897" id="Fill-5" fill="#0F81BA"></path>
                        <path d="M26.7132982,116.314872 C19.6005805,116.314872 19.6005805,105.032821 26.7132982,105.032821 C33.8250132,105.032821 33.8250132,116.314872 26.7132982,116.314872" id="Fill-6" fill="#0F81BA"></path>
                        <path d="M358.272823,161.301538 C351.160106,161.301538 351.160106,150.019487 358.272823,150.019487 C365.385541,150.019487 365.385541,161.301538 358.272823,161.301538" id="Fill-7" fill="#0F81BA"></path>
                        <path d="M171.469235,26.7630769 C164.356517,26.7630769 164.356517,15.4810256 171.469235,15.4810256 C178.58095,15.4810256 178.58095,26.7630769 171.469235,26.7630769" id="Fill-8" fill="#0F81BA"></path>
                        <path d="M369.301847,143.391795 C360.055515,143.391795 360.055515,128.725128 369.301847,128.725128 C378.548179,128.725128 378.548179,143.391795 369.301847,143.391795" id="Fill-9" fill="#0F81BA"></path>
                        <path d="M8.1023219,134.930256 C-1.14401055,134.930256 -1.14401055,120.26359 8.1023219,120.26359 C17.3476517,120.26359 17.3476517,134.930256 8.1023219,134.930256" id="Fill-10" fill="#0F81BA"></path>
                        <path d="M314.156728,46.7887179 C304.910396,46.7887179 304.910396,32.1220513 314.156728,32.1220513 C323.403061,32.1220513 323.403061,46.7887179 314.156728,46.7887179" id="Fill-11" fill="#0F81BA"></path>
                        <path d="M187.322955,17.5969231 C176.654881,17.5969231 176.654881,0.673846154 187.322955,0.673846154 C197.992032,0.673846154 197.992032,17.5969231 187.322955,17.5969231" id="Fill-12" fill="#0F81BA"></path>
                        <path d="M375.230449,156.647179 C369.896412,156.647179 369.896412,148.185641 375.230449,148.185641 C380.564485,148.185641 380.564485,156.647179 375.230449,156.647179" id="Fill-13" fill="#0F81BA"></path>
                        <path d="M6.17124011,111.378462 C0.837203166,111.378462 0.837203166,102.916923 6.17124011,102.916923 C11.5062797,102.916923 11.5062797,111.378462 6.17124011,111.378462" id="Fill-14" fill="#0F81BA"></path>
                        <path d="M331.390079,54.9682051 C326.05504,54.9682051 326.05504,46.5066667 331.390079,46.5066667 C336.724116,46.5066667 336.724116,54.9682051 331.390079,54.9682051" id="Fill-15" fill="#0F81BA"></path>
                        <path d="M330.011451,39.4553846 C326.455092,39.4553846 326.455092,33.814359 330.011451,33.814359 C333.566807,33.814359 333.566807,39.4553846 330.011451,39.4553846" id="Fill-16" fill="#0F81BA"></path>
                        <path d="M50.7014248,29.7241026 C43.5897098,29.7241026 43.5897098,18.4420513 50.7014248,18.4420513 C57.8141425,18.4420513 57.8141425,29.7241026 50.7014248,29.7241026" id="Fill-17" fill="#0F81BA"></path>
                        <path d="M364.47715,224.2 C357.364433,224.2 357.364433,212.917949 364.47715,212.917949 C371.588865,212.917949 371.588865,224.2 364.47715,224.2" id="Fill-18" fill="#0F81BA"></path>
                        <path d="M6.03387863,229.135385 C-1.07883905,229.135385 -1.07883905,217.853333 6.03387863,217.853333 C13.1465963,217.853333 13.1465963,229.135385 6.03387863,229.135385" id="Fill-19" fill="#0F81BA"></path>
                        <path d="M67.2449604,21.2625641 C63.6886016,21.2625641 63.6886016,15.6215385 67.2449604,15.6215385 C70.8013193,15.6215385 70.8013193,21.2625641 67.2449604,21.2625641" id="Fill-20" fill="#0F81BA"></path>
                        <path d="M365.165963,201.635897 C361.609604,201.635897 361.609604,195.994872 365.165963,195.994872 C368.722322,195.994872 368.722322,201.635897 365.165963,201.635897" id="Fill-21" fill="#0F81BA"></path>
                        <path d="M22.5774142,236.186667 C19.0210554,236.186667 19.0210554,230.545641 22.5774142,230.545641 C26.1327704,230.545641 26.1327704,236.186667 22.5774142,236.186667" id="Fill-22" fill="#0F81BA"></path>
                        <path d="M101.298575,141.210256 C97.5837995,142.551795 95.1313456,142.809231 93.2273351,138.965128 C91.7624802,136.006154 90.7849077,132.949744 88.9400528,130.179487 C84.9415303,124.175385 81.0683377,123.772308 74.6664908,124.627692 C68.3117678,125.476923 59.6429551,123.81641 58.6784169,116.299487 C57.9906069,110.941538 57.9505013,106.015385 55.657467,101.003077 C54.528496,98.5333333 50.9631135,100.683077 52.0870712,103.138462 C54.6307652,108.699487 53.5178364,114.754872 55.3797361,120.419487 C57.2687071,126.167179 63.5592612,128.020513 68.8461741,128.665641 C72.8416887,129.152821 76.3398945,128.167179 80.2572032,128.172308 C84.4642744,128.177436 87.3358311,135.558974 88.670343,138.8 C91.4486544,145.555897 95.3870185,147.822564 102.397467,145.289231 C104.89504,144.387692 103.819208,140.299487 101.298575,141.210256" id="Fill-23" fill="#121514"></path>
                        <path d="M57.5905541,95.2933333 C56.3532982,96.9517949 54.839314,97.9887179 53.0365699,98.9169231 C51.1315567,99.8984615 52.8069657,102.818462 54.7069657,101.838974 C57.0501319,100.631795 58.8538786,99.1374359 60.4480739,97.0020513 C60.9965172,96.2666667 60.5603694,95.1087179 59.8545119,94.6861538 C59.0042744,94.1764103 58.1369921,94.5620513 57.5905541,95.2933333" id="Fill-24" fill="#121514"></path>
                        <path d="M51.6669657,90.7887179 C51.6759894,94.3671795 52.1863325,97.9271795 52.2184169,101.506667 C52.237467,103.688205 55.5461741,103.690256 55.5261214,101.506667 C55.4950396,97.9271795 54.9846966,94.3671795 54.9756728,90.7887179 C54.969657,88.6061538 51.6609499,88.6061538 51.6669657,90.7887179" id="Fill-25" fill="#121514"></path>
                        <path d="M46.085277,94.2420513 C48.2991029,97.0728205 50.5480211,99.8964103 53.5880211,101.838974 C55.4037995,102.998974 57.0631662,100.069744 55.2584169,98.9169231 C52.4821108,97.1435897 50.4447493,94.4297436 48.4244327,91.8492308 C47.0919261,90.1446154 44.7668074,92.5558974 46.085277,94.2420513" id="Fill-26" fill="#121514"></path>
                        <path d="M43.3280211,99.3179487 C46.407124,102.295385 50.2442216,103.282051 54.3119261,102.010256 C56.3462797,101.374359 55.4789974,98.1066667 53.4326121,98.745641 C50.4948813,99.6646154 47.9150923,99.0984615 45.6671768,96.9251282 C44.1191029,95.4266667 41.774934,97.8164103 43.3280211,99.3179487" id="Fill-27" fill="#121514"></path>
                        <path d="M270.454723,151.710769 C270.604116,146.182564 272.409868,144.337436 277.627599,143.902564 C281.01752,143.619487 284.45657,143.667692 287.809393,143.028718 C292.925858,142.054359 292.831609,134.833846 294.810818,131.107692 C297.834776,125.41641 305.958153,126.021538 311.20095,124.339487 C316.97715,122.488205 319.193984,117.486154 319.533879,111.660513 C319.694301,108.933333 315.557414,108.949744 315.397995,111.660513 C314.891662,120.327179 308.677309,120.628718 301.853351,122.064615 C295.83752,123.331282 291.762797,126.70359 289.671293,132.633846 C289.01657,134.490256 288.858153,138.36 286.709499,138.949744 C283.212296,139.908718 279.186702,139.470769 275.588232,139.869744 C268.826438,140.618462 266.496306,145.146667 266.318839,151.710769 C266.245646,154.441026 270.38153,154.433846 270.454723,151.710769" id="Fill-28" fill="#121514"></path>
                        <path d="M309.804274,106.468718 C311.217995,109.916923 313.654406,112.410256 317.02628,113.85641 C317.859472,114.213333 318.846069,113.477949 319.061636,112.673846 C319.323325,111.698462 318.736781,110.948718 317.905594,110.591795 C315.730871,109.659487 313.907071,107.793846 312.99467,105.569231 C312.645752,104.718974 311.913826,104.118974 310.960317,104.386667 C310.174248,104.608205 309.455356,105.61641 309.804274,106.468718" id="Fill-29" fill="#121514"></path>
                        <path d="M314.708179,102.070769 C314.708179,104.891282 314.708179,107.711795 314.708179,110.532308 C314.708179,112.714872 318.017889,112.714872 318.017889,110.532308 C318.017889,107.711795 318.017889,104.891282 318.017889,102.070769 C318.017889,99.8882051 314.708179,99.8882051 314.708179,102.070769" id="Fill-30" fill="#121514"></path>
                        <path d="M320.281847,102.748718 C319.279208,105.707692 317.548654,107.934359 315.192454,109.899487 C313.539103,111.28 315.894301,113.659487 317.532612,112.292308 C320.336992,109.952821 322.286121,107.149744 323.472243,103.648205 C324.173087,101.580513 320.976675,100.700513 320.281847,102.748718" id="Fill-31" fill="#121514"></path>
                        <path d="M324.309446,106.293333 C322.868654,108.631795 320.59066,110.125128 318.129182,111.156923 C316.183061,111.973333 317.033298,115.249231 319.008496,114.421538 C322.305172,113.037949 325.230871,111.141538 327.166966,108.002051 C328.307968,106.150769 325.444433,104.453333 324.309446,106.293333" id="Fill-32" fill="#121514"></path>
                        <path d="M290.171609,213.010256 C290.171609,215.969231 268.510607,216.828718 266.169446,216.828718 L104.065858,216.828718 C101.727704,216.828718 80.0636939,215.969231 80.0636939,213.010256 L99.8297098,182.700513 C99.8297098,179.740513 101.727704,177.341538 104.065858,177.341538 L266.169446,177.341538 C268.510607,177.341538 270.405594,179.740513 270.405594,182.700513 L290.171609,213.010256" id="Fill-33" fill="#A4A6A3"></path>
                        <polyline id="Fill-34" fill="#2F3230" points="151.781425 206.258462 110.119789 206.258462 117.409974 188.207179 155.091135 188.207179 151.781425 206.258462"></polyline>
                        <polyline id="Fill-35" fill="#2F3230" points="218.453879 206.258462 260.115515 206.258462 252.823325 188.207179 215.144169 188.207179 218.453879 206.258462"></polyline>
                        <polyline id="Fill-36" fill="#2F3230" points="264.745699 206.258462 279.416306 206.258462 267.411715 188.207179 256.344591 188.207179 264.745699 206.258462"></polyline>
                        <polyline id="Fill-37" fill="#2F3230" points="105.491609 206.258462 90.82 206.258462 102.825594 188.207179 113.890712 188.207179 105.491609 206.258462"></polyline>
                        <polyline id="Fill-38" fill="#2F3230" points="214.789235 206.258462 155.445066 206.258462 158.753773 188.207179 211.480528 188.207179 214.789235 206.258462"></polyline>
                        <polygon id="Fill-39" fill="#A4A6A3" points="94.4405277 194.264615 275.795778 194.264615 275.795778 191.501538 94.4405277 191.501538"></polygon>
                        <polygon id="Fill-40" fill="#A4A6A3" points="92.4743536 201.033846 277.761953 201.033846 277.761953 198.269744 92.4743536 198.269744"></polygon>
                        <path d="M291.28153,220.029744 C291.28153,222.422564 290.796253,224.362051 288.459103,224.362051 L81.7772032,224.362051 C79.4360422,224.362051 78.9537731,222.422564 78.9537731,220.029744 L78.9537731,216.314872 C78.9537731,213.922051 79.4360422,211.98359 81.7772032,211.98359 L288.459103,211.98359 C290.796253,211.98359 291.28153,213.922051 291.28153,216.314872 L291.28153,220.029744" id="Fill-41" fill="#2F3230"></path>
                        <path d="M223.857098,218.275897 C223.857098,219.522051 222.869499,220.533333 221.651293,220.533333 L148.584011,220.533333 C147.365805,220.533333 146.378206,219.522051 146.378206,218.275897 C146.378206,217.029744 147.365805,216.019487 148.584011,216.019487 L221.651293,216.019487 C222.869499,216.019487 223.857098,217.029744 223.857098,218.275897" id="Fill-42" fill="#5E6360"></path>
                        <path d="M272.523166,178.609231 C272.523166,181.002051 270.627177,182.942564 268.286016,182.942564 L101.949288,182.942564 C99.6091293,182.942564 97.7121372,181.002051 97.7121372,178.609231 L97.7121372,67.6010256 C97.7121372,65.2082051 99.6091293,63.2666667 101.949288,63.2666667 L268.286016,63.2666667 C270.627177,63.2666667 272.523166,65.2082051 272.523166,67.6010256 L272.523166,178.609231" id="Fill-43" fill="#2F3230"></path>
                        <path d="M185.118153,69.2953846 C187.394142,69.2953846 187.394142,65.6841026 185.118153,65.6841026 C182.841161,65.6841026 182.841161,69.2953846 185.118153,69.2953846" id="Fill-44" fill="#FFFFFE"></path>
                        <path d="M260.286966,171.630769 C260.286966,173.689231 258.655673,175.357949 256.645383,175.357949 L113.591926,175.357949 C111.580633,175.357949 109.947335,173.689231 109.947335,171.630769 L109.947335,76.1671795 C109.947335,74.1087179 111.580633,72.44 113.591926,72.44 L256.645383,72.44 C258.655673,72.44 260.286966,74.1087179 260.286966,76.1671795 L260.286966,171.630769" id="Fill-45" fill="#FFFFFE"></path>
                        <path d="M162.063483,109.937436 L149.584644,122.700513 C148.937942,123.362051 148.937942,124.433846 149.584644,125.094359 C150.230343,125.754872 151.2781,125.754872 151.923799,125.094359 L164.402639,112.331282 C165.04934,111.669744 165.04934,110.598974 164.403641,109.937436 C163.756939,109.276923 162.709182,109.276923 162.063483,109.937436" id="Fill-46" fill="#334659"></path>
                        <path d="M164.402639,122.70359 L151.924802,109.938462 C151.279103,109.277949 150.231346,109.277949 149.585646,109.938462 C148.938945,110.6 148.938945,111.670769 149.585646,112.332308 L162.063483,125.09641 C162.709182,125.756923 163.756939,125.756923 164.402639,125.09641 C165.04934,124.435897 165.04934,123.364103 164.402639,122.70359" id="Fill-47" fill="#334659"></path>
                        <path d="M218.311504,109.937436 L205.831662,122.700513 C205.185963,123.362051 205.185963,124.433846 205.831662,125.094359 C206.478364,125.754872 207.525119,125.754872 208.171821,125.094359 L220.65066,112.331282 C221.296359,111.669744 221.296359,110.598974 220.65066,109.937436 C220.00496,109.276923 218.957203,109.276923 218.311504,109.937436" id="Fill-48" fill="#334659"></path>
                        <path d="M220.65066,122.70359 L208.173826,109.938462 C207.527124,109.277949 206.480369,109.277949 205.833668,109.938462 C205.187968,110.6 205.187968,111.670769 205.833668,112.332308 L218.311504,125.09641 C218.957203,125.756923 220.00496,125.756923 220.65066,125.09641 C221.296359,124.435897 221.296359,123.364103 220.65066,122.70359" id="Fill-49" fill="#334659"></path>
                        <path d="M213.879842,139.301538 L213.879842,151.899487 C213.879842,154.392821 211.904644,156.412308 209.468232,156.412308 L207.088971,156.412308 C204.652559,156.412308 202.677361,154.392821 202.677361,151.899487 L202.677361,139.301538" id="Fill-50" fill="#EA8FA2"></path>
                        <polyline id="Fill-51" fill="#E67A94" points="210.213193 139.958974 208.2781 154.625641 206.344011 139.958974 210.213193 139.958974"></polyline>
                        <path d="M147.725752,140.697436 L222.509551,140.697436 C223.270554,140.697436 223.888179,140.066667 223.888179,139.287179 C223.888179,138.508718 223.270554,137.876923 222.509551,137.876923 L147.725752,137.876923 C146.964749,137.876923 146.347124,138.508718 146.347124,139.287179 C146.347124,140.066667 146.964749,140.697436 147.725752,140.697436" id="Fill-52" fill="#334659"></path>
                        <path d="M135.487546,137.421538 C142.600264,137.421538 142.600264,126.139487 135.487546,126.139487 C128.374828,126.139487 128.374828,137.421538 135.487546,137.421538" id="Fill-53" fill="#F0B6BF"></path>
                        <path d="M234.74876,137.421538 C241.861478,137.421538 241.861478,126.139487 234.74876,126.139487 C227.636042,126.139487 227.636042,137.421538 234.74876,137.421538" id="Fill-54" fill="#F0B6BF"></path>
                        <path d="M244.122427,48.4810256 C244.122427,60.8912821 244.122427,73.3015385 244.122427,85.7117949 C244.122427,89.3497436 249.636939,89.3497436 249.636939,85.7117949 C249.636939,73.3015385 249.636939,60.8912821 249.636939,48.4810256 C249.636939,44.8430769 244.122427,44.8430769 244.122427,48.4810256" id="Fill-55" fill="#E54D42"></path>
                        <path d="M246.879683,100.09641 C252.214723,100.09641 252.214723,91.6348718 246.879683,91.6348718 C241.545646,91.6348718 241.545646,100.09641 246.879683,100.09641" id="Fill-56" fill="#E54D42"></path>
                    </g>
                </g>
            </g>
        </g>
    </g>
</svg>